<svg height="512pt" viewBox="0 -31 512 512" width="512pt" xmlns="http://www.w3.org/2000/svg"><path d="m242 178.976562v121.851563c18.445312-5.667969 34.414062-11.890625 47.546875-18.472656-10.835937-10.859375-17.546875-25.832031-17.546875-42.355469 0-16.546875 6.726562-31.546875 17.589844-42.410156-13.496094-6.84375-29.503906-13.074219-47.589844-18.613282zm0 0"/><path d="m362 240c0-16.539062-13.460938-30-30-30s-30 13.460938-30 30 13.460938 30 30 30 30-13.460938 30-30zm0 0"/><path d="m212 170.828125c-46.773438-11.136719-105.109375-18.242187-164.769531-20.203125-5.542969 13.855469-9.933594 28.328125-12.820313 43.40625l-34.410156 135.902344c80.183594.90625 156.578125-7.558594 212-20.902344zm0 0"/><path d="m272 0c-88.132812 0-168.804688 48.171875-210.484375 121.160156 77.21875 3.476563 194.683594 18.082032 259.578125 59.941406 3.546875-.65625 7.171875-1.101562 10.90625-1.101562 33.089844 0 60 26.910156 60 60s-26.910156 60-60 60c-3.875 0-7.644531-.4375-11.316406-1.144531-75.390625 48.597656-219.96875 61.085937-309.773438 61.085937-2.382812 0-4.835937-.238281-7.222656-.253906l58.832031 83.632812c2.785157 4.175782 7.46875 6.679688 12.480469 6.679688h309.324219c2.636719 0 5.214843-.6875 7.5-2.007812 26.191406-15.117188 48.648437-35.027344 67.039062-57.992188h-51.863281c-24.8125 0-45-20.1875-45-45s20.1875-45 45-45h97.164062c5.042969-19.394531 7.835938-39.507812 7.835938-60 0-132.335938-107.664062-240-240-240zm165 270c-8.285156 0-15-6.714844-15-15s6.714844-15 15-15 15 6.714844 15 15-6.714844 15-15 15zm15-75c0 8.285156-6.714844 15-15 15s-15-6.714844-15-15 6.714844-15 15-15 15 6.714844 15 15zm0 0"/><path d="m392 345c0 8.277344 6.722656 15 15 15h72.714844c5.5625-9.625 10.332031-19.683594 14.523437-30h-87.238281c-8.277344 0-15 6.722656-15 15zm0 0"/></svg>